<svg width="50" height="51" viewBox="0 0 50 51" fill="none" xmlns="http://www.w3.org/2000/svg">
<path d="M23.2111 43.1889L22.9875 43.6361H22.9875L23.2111 43.1889ZM26.7889 43.1889L26.5652 42.7417L26.7889 43.1889ZM29.0018 41.9306L29.4201 42.2045L29.0018 41.9306ZM20.8009 40.7645L21.3002 40.7382L20.8009 40.7645ZM21.9389 42.5528L21.7153 43L21.9389 42.5528ZM20.9982 41.9306L20.5799 42.2045L20.9982 41.9306ZM18.0372 31.5495L18.3161 31.1344L18.0372 31.5495ZM18.7934 32.4157L19.25 32.2121L18.7934 32.4157ZM18.5344 31.9304L18.1517 32.2522L18.5344 31.9304ZM31.9628 31.5495L32.2416 31.9645L31.9628 31.5495ZM31.2066 32.4157L30.75 32.2121L31.2066 32.4157ZM31.4656 31.9304L31.8483 32.2522L31.4656 31.9304ZM37 21.1667C37 25.3192 34.8913 28.9793 31.6839 31.1344L32.2416 31.9645C35.7136 29.6315 38 25.6662 38 21.1667H37ZM25 9.16669C31.6274 9.16669 37 14.5393 37 21.1667H38C38 13.987 32.1797 8.16669 25 8.16669V9.16669ZM13 21.1667C13 14.5393 18.3726 9.16669 25 9.16669V8.16669C17.8203 8.16669 12 13.987 12 21.1667H13ZM18.3161 31.1344C15.1087 28.9793 13 25.3192 13 21.1667H12C12 25.6662 14.2864 29.6315 17.7583 31.9645L18.3161 31.1344ZM21.3002 40.7382C21.1453 37.7914 20.4492 34.9014 19.25 32.2121L18.3367 32.6194C19.486 35.1967 20.1531 37.9665 20.3016 40.7907L21.3002 40.7382ZM23.4348 42.7417L22.1625 42.1056L21.7153 43L22.9875 43.6361L23.4348 42.7417ZM26.5652 42.7417C25.5799 43.2344 24.4201 43.2344 23.4348 42.7417L22.9875 43.6361C24.2544 44.2696 25.7456 44.2696 27.0125 43.6361L26.5652 42.7417ZM27.8375 42.1056L26.5652 42.7417L27.0125 43.6361L28.2847 43L27.8375 42.1056ZM30.75 32.2121C29.5508 34.9014 28.8547 37.7914 28.6998 40.7382L29.6984 40.7907C29.8469 37.9665 30.514 35.1967 31.6633 32.6194L30.75 32.2121ZM28.2847 43C28.5404 42.8722 28.7639 42.761 28.9395 42.6511C29.1232 42.5361 29.2917 42.4005 29.4201 42.2045L28.5835 41.6566C28.564 41.6865 28.5264 41.7299 28.4089 41.8035C28.2833 41.8821 28.1103 41.9692 27.8375 42.1056L28.2847 43ZM28.6998 40.7382C28.6828 41.0609 28.6714 41.2693 28.6487 41.4264C28.627 41.5766 28.6009 41.6301 28.5835 41.6566L29.4201 42.2045C29.5506 42.0052 29.6067 41.7891 29.6384 41.5694C29.6692 41.3567 29.6824 41.0949 29.6984 40.7907L28.6998 40.7382ZM20.3016 40.7907C20.3176 41.0949 20.3308 41.3567 20.3616 41.5694C20.3933 41.7891 20.4494 42.0052 20.5799 42.2045L21.4165 41.6566C21.3991 41.6301 21.373 41.5766 21.3513 41.4264C21.3286 41.2693 21.3172 41.0609 21.3002 40.7382L20.3016 40.7907ZM22.1625 42.1056C21.8897 41.9692 21.7167 41.8821 21.5911 41.8035C21.4736 41.7299 21.436 41.6865 21.4165 41.6566L20.5799 42.2045C20.7083 42.4005 20.8768 42.5361 21.0605 42.6511C21.2361 42.761 21.4596 42.8722 21.7153 43L22.1625 42.1056ZM17.7583 31.9645C18.0574 32.1654 18.1177 32.2118 18.1517 32.2522L18.917 31.6086C18.7697 31.4334 18.559 31.2977 18.3161 31.1344L17.7583 31.9645ZM19.25 32.2121C19.1484 31.9841 19.0632 31.7823 18.917 31.6086L18.1517 32.2522C18.1869 32.2941 18.2139 32.344 18.3367 32.6194L19.25 32.2121ZM31.6839 31.1344C31.441 31.2977 31.2303 31.4334 31.083 31.6086L31.8483 32.2522C31.8823 32.2118 31.9426 32.1654 32.2416 31.9645L31.6839 31.1344ZM31.6633 32.6194C31.7861 32.344 31.8131 32.2941 31.8483 32.2522L31.083 31.6086C30.9368 31.7823 30.8516 31.9841 30.75 32.2121L31.6633 32.6194Z" fill="#E5E8EC"/>
<path d="M30.2083 34.7084V34.7084C26.8649 36.0458 23.1351 36.0458 19.7916 34.7084V34.7084" stroke="#E5E8EC"/>
</svg>
